<?xml version="1.0" encoding="UTF-8" standalone="no"?>
<!-- Created with Inkscape (http://www.inkscape.org/) -->

<svg
   version="1.1"
   id="svg29247"
   width="2048"
   height="2048"
   viewBox="0 0 2048 2048"
   sodipodi:docname="logo (cópia).svg"
   inkscape:version="1.1.2 (0a00cf5339, 2022-02-04)"
   xmlns:inkscape="http://www.inkscape.org/namespaces/inkscape"
   xmlns:sodipodi="http://sodipodi.sourceforge.net/DTD/sodipodi-0.dtd"
   xmlns="http://www.w3.org/2000/svg"
   xmlns:svg="http://www.w3.org/2000/svg">
  <defs
     id="defs29251">
    <rect
       x="78.393408"
       y="-2105.1983"
       width="1021.1201"
       height="803.31866"
       id="rect5577" />
    <rect
       x="3278.9717"
       y="-687.78772"
       width="237.66041"
       height="203.69425"
       id="rect53507" />
    <rect
       x="2671.8316"
       y="-682.34854"
       width="476.94864"
       height="496.20867"
       id="rect48067" />
  </defs>
  <sodipodi:namedview
     id="namedview29249"
     pagecolor="#ffffff"
     bordercolor="#999999"
     borderopacity="1"
     inkscape:pageshadow="0"
     inkscape:pageopacity="0"
     inkscape:pagecheckerboard="0"
     showgrid="false"
     inkscape:zoom="0.16"
     inkscape:cx="1284.375"
     inkscape:cy="1000"
     inkscape:window-width="1360"
     inkscape:window-height="700"
     inkscape:window-x="0"
     inkscape:window-y="0"
     inkscape:window-maximized="1"
     inkscape:current-layer="g29253"
     showguides="false" />
  <g
     inkscape:groupmode="layer"
     inkscape:label="Image"
     id="g29253"
     style="display:inline">
    <text
       xml:space="preserve"
       id="text5575"
       style="fill:black;fill-opacity:1;line-height:1.25;stroke:none;font-family:sans-serif;font-style:normal;font-weight:normal;font-size:40px;white-space:pre;shape-inside:url(#rect5577)" />
    <path
       d="M 1663.1229,278.49681 H 435.95938 a 78.825101,78.825101 0 0 0 -71.659,80.61657 V 1577.3193 a 78.825101,78.825101 0 0 0 71.659,80.6171 H 1089.8497 V 1120.4922 H 910.70185 V 914.47206 H 1089.8497 V 762.1963 a 257.07732,257.07732 0 0 1 223.935,-277.67934 h 44.7867 a 973.66915,973.66915 0 0 1 161.2335,8.95739 v 188.10538 h -116.4463 c -89.5739,0 -98.5313,44.78695 -98.5313,98.53135 v 134.36098 h 206.0201 l -26.8723,206.02014 h -179.1478 v 528.4867 h 349.3381 a 78.825101,78.825101 0 0 0 80.6171,-71.6596 V 350.15599 a 77.033623,77.033623 0 0 0 -71.6596,-71.65918 z"
       fill="rgb(149, 157, 165)"
       id="path7505-3"
       style="fill:#059396;fill-opacity:1;stroke-width:1;stroke:#000000;stroke-opacity:1;stroke-miterlimit:4;stroke-dasharray:none" />
  </g>
</svg>
